<?xml version="1.0" encoding="UTF-8"?>
<svg width="66px" height="51px" viewBox="0 0 66 51" version="1.1" xmlns="http://www.w3.org/2000/svg" xmlns:xlink="http://www.w3.org/1999/xlink">
    <!-- Generator: Sketch 60 (88103) - https://sketch.com -->
    <title>iconmonstr-school-22</title>
    <desc>Created with Sketch.</desc>
    <g id="Page-1" stroke="none" stroke-width="1" fill="none" fill-rule="evenodd">
        <g id="Study-Aids-landing" transform="translate(-130.000000, -285.000000)" fill="#B1DEFF" stroke="#B1DEFF">
            <g id="iconmonstr-school-22" transform="translate(130.000000, 286.000000)">
                <path d="M59.5833333,18.3477778 L54.1666667,21.1244444 L54.1666667,40.8333333 C51.439375,46.3893889 38.98375,49 31.1458333,49 C22.546875,49 11.1339583,46.2941111 8.125,40.8333333 L8.125,19.6108889 L0,14.4495556 L32.5,0 L62.2916667,16.9621667 L62.2916667,40.8333333 L65,49 L56.875,49 L59.5833333,40.8333333 L59.5833333,18.3477778 Z M10.8333333,21.3286111 L10.8333333,40.0384444 C13.4279167,43.5228889 22.254375,46.2777778 31.1458333,46.2777778 C38.98375,46.2777778 48.9910417,43.6671667 51.4583333,40.1010556 L51.4583333,22.5100556 L30.0002083,33.5051111 L10.8333333,21.3286111 Z M5.73895833,14.8742222 L30.14375,30.3745556 L56.574375,16.8342222 L32.3510417,3.04344444 L5.73895833,14.8742222 L5.73895833,14.8742222 Z" id="Shape"></path>
            </g>
        </g>
    </g>
</svg>